<svg width="32" height="32" viewBox="0 0 32 32" fill="none" xmlns="http://www.w3.org/2000/svg">
<path fill-rule="evenodd" clip-rule="evenodd" d="M20.3311 8.46887C20.6311 8.76891 20.7996 9.17581 20.7996 9.60007C20.7996 10.0243 20.6311 10.4312 20.3311 10.7313L15.0623 16.0001L20.3311 21.2689C20.6226 21.5706 20.7838 21.9748 20.7802 22.3943C20.7765 22.8138 20.6083 23.2151 20.3116 23.5118C20.015 23.8084 19.6137 23.9767 19.1941 23.9803C18.7746 23.984 18.3705 23.8227 18.0687 23.5313L11.6687 17.1313C11.3687 16.8312 11.2002 16.4243 11.2002 16.0001C11.2002 15.5758 11.3687 15.1689 11.6687 14.8689L18.0687 8.46887C18.3687 8.16891 18.7756 8.00041 19.1999 8.00041C19.6242 8.00041 20.0311 8.16891 20.3311 8.46887Z" fill="#808080"/>
</svg>
