<svg width="32" height="32" viewBox="0 0 32 32" fill="none" xmlns="http://www.w3.org/2000/svg">
<path fill-rule="evenodd" clip-rule="evenodd" d="M11.6689 23.5311C11.3689 23.2311 11.2004 22.8242 11.2004 22.3999C11.2004 21.9757 11.3689 21.5688 11.6689 21.2687L16.9377 15.9999L11.6689 10.7311C11.3774 10.4294 11.2162 10.0252 11.2198 9.60569C11.2235 9.18617 11.3917 8.78487 11.6884 8.48822C11.985 8.19157 12.3863 8.0233 12.8059 8.01965C13.2254 8.01601 13.6295 8.17728 13.9313 8.46873L20.3313 14.8687C20.6313 15.1688 20.7998 15.5757 20.7998 15.9999C20.7998 16.4242 20.6313 16.8311 20.3313 17.1311L13.9313 23.5311C13.6313 23.8311 13.2244 23.9996 12.8001 23.9996C12.3758 23.9996 11.9689 23.8311 11.6689 23.5311Z" fill="white"/>
</svg>
