<svg width="80" height="88" viewBox="0 0 80 88" fill="none" xmlns="http://www.w3.org/2000/svg">
<g clip-path="url(#clip0)">
<path d="M38 50.0001C40.1217 50.0001 42.1565 49.1572 43.6568 47.657C45.1571 46.1567 46 44.1218 46 42.0001C46 39.8784 45.1571 37.8435 43.6568 36.3432C42.1565 34.843 40.1217 34.0001 38 34.0001C35.8782 34.0001 33.8434 34.843 32.3431 36.3432C30.8428 37.8435 30 39.8784 30 42.0001C30 44.1218 30.8428 46.1567 32.3431 47.657C33.8434 49.1572 35.8782 50.0001 38 50.0001ZM46.4266 48.5414L51.2 53.3148C51.3272 53.4379 51.4287 53.5851 51.4985 53.7478C51.5682 53.9105 51.6049 54.0855 51.6063 54.2625C51.6077 54.4396 51.5738 54.6151 51.5067 54.7789C51.4395 54.9427 51.3404 55.0915 51.2151 55.2166C51.0899 55.3417 50.9409 55.4406 50.777 55.5075C50.6131 55.5745 50.4375 55.6081 50.2605 55.6064C50.0834 55.6048 49.9085 55.5679 49.7459 55.4979C49.5833 55.4279 49.4362 55.3262 49.3133 55.1988L44.54 50.4254C42.3966 52.0892 39.6997 52.8737 36.9983 52.619C34.2969 52.3644 31.7941 51.0899 29.9994 49.0548C28.2046 47.0198 27.2529 44.3774 27.3379 41.6653C27.4229 38.9533 28.5382 36.3756 30.4568 34.457C32.3755 32.5383 34.9532 31.423 37.6652 31.338C40.3772 31.253 43.0197 32.2048 45.0547 33.9995C47.0897 35.7942 48.3643 38.2971 48.6189 40.9984C48.8735 43.6998 48.0891 46.3967 46.4253 48.5401L46.4266 48.5414Z" fill="#0D0D0D"/>
</g>
<defs>
<clipPath id="clip0">
<rect width="80" height="88" fill="white"/>
</clipPath>
</defs>
</svg>
